<mxfile host="app.diagrams.net" modified="2023-04-09T02:22:26.256Z" agent="Mozilla/5.0 (Windows NT 10.0; Win64; x64) AppleWebKit/537.36 (KHTML, like Gecko) Chrome/111.0.0.0 Safari/537.36" etag="qf5PvRXAifpDKOVmBeGo" version="21.1.5" type="github">
  <diagram name="Page-1" id="edf60f1a-56cd-e834-aa8a-f176f3a09ee4">
    <mxGraphModel dx="1909" dy="1978" grid="1" gridSize="10" guides="1" tooltips="1" connect="1" arrows="1" fold="1" page="1" pageScale="1" pageWidth="1800" pageHeight="1100" background="none" math="0" shadow="0">
      <root>
        <mxCell id="0" />
        <mxCell id="1" parent="0" />
        <mxCell id="60e70716793133e9-35" value="No" style="edgeStyle=orthogonalEdgeStyle;rounded=0;html=1;labelBackgroundColor=none;startSize=5;endArrow=classicThin;endFill=1;endSize=5;jettySize=auto;orthogonalLoop=1;strokeWidth=1;fontFamily=Verdana;fontSize=8" parent="1" source="60e70716793133e9-7" edge="1">
          <mxGeometry x="-1" y="-10" relative="1" as="geometry">
            <mxPoint x="440" y="320" as="targetPoint" />
            <Array as="points" />
            <mxPoint as="offset" />
          </mxGeometry>
        </mxCell>
        <mxCell id="yNIfGoefYe46fEr91YX2-5" style="edgeStyle=orthogonalEdgeStyle;rounded=0;orthogonalLoop=1;jettySize=auto;html=1;exitX=1;exitY=0.5;exitDx=0;exitDy=0;exitPerimeter=0;entryX=0.5;entryY=0;entryDx=0;entryDy=0;" edge="1" parent="1" source="yNIfGoefYe46fEr91YX2-1" target="yNIfGoefYe46fEr91YX2-11">
          <mxGeometry relative="1" as="geometry">
            <mxPoint x="190" y="-967" as="targetPoint" />
          </mxGeometry>
        </mxCell>
        <mxCell id="yNIfGoefYe46fEr91YX2-1" value="Grocery &lt;br&gt;Shopping&lt;br&gt;at Costco" style="strokeWidth=2;html=1;shape=mxgraph.flowchart.terminator;whiteSpace=wrap;" vertex="1" parent="1">
          <mxGeometry x="10" y="-997" width="100" height="60" as="geometry" />
        </mxCell>
        <mxCell id="yNIfGoefYe46fEr91YX2-12" style="edgeStyle=orthogonalEdgeStyle;rounded=0;orthogonalLoop=1;jettySize=auto;html=1;exitX=1;exitY=0.5;exitDx=0;exitDy=0;" edge="1" parent="1" source="yNIfGoefYe46fEr91YX2-11" target="yNIfGoefYe46fEr91YX2-13">
          <mxGeometry relative="1" as="geometry">
            <mxPoint x="150" y="-817" as="targetPoint" />
          </mxGeometry>
        </mxCell>
        <mxCell id="yNIfGoefYe46fEr91YX2-11" value="Create &lt;br&gt;Shopping List" style="shape=hexagon;perimeter=hexagonPerimeter2;whiteSpace=wrap;html=1;fixedSize=1;" vertex="1" parent="1">
          <mxGeometry y="-857" width="100" height="80" as="geometry" />
        </mxCell>
        <mxCell id="yNIfGoefYe46fEr91YX2-14" style="edgeStyle=orthogonalEdgeStyle;rounded=0;orthogonalLoop=1;jettySize=auto;html=1;exitX=1;exitY=0.5;exitDx=0;exitDy=0;exitPerimeter=0;" edge="1" parent="1" source="yNIfGoefYe46fEr91YX2-13">
          <mxGeometry relative="1" as="geometry">
            <mxPoint x="310" y="-817" as="targetPoint" />
          </mxGeometry>
        </mxCell>
        <mxCell id="yNIfGoefYe46fEr91YX2-13" value="Drive to Costdo" style="strokeWidth=2;html=1;shape=mxgraph.flowchart.delay;whiteSpace=wrap;" vertex="1" parent="1">
          <mxGeometry x="150" y="-847" width="100" height="60" as="geometry" />
        </mxCell>
        <mxCell id="yNIfGoefYe46fEr91YX2-16" style="edgeStyle=orthogonalEdgeStyle;rounded=0;orthogonalLoop=1;jettySize=auto;html=1;exitX=1;exitY=0.5;exitDx=0;exitDy=0;entryX=0.5;entryY=0;entryDx=0;entryDy=0;" edge="1" parent="1">
          <mxGeometry relative="1" as="geometry">
            <mxPoint x="515" y="-767" as="targetPoint" />
            <mxPoint x="410" y="-817" as="sourcePoint" />
          </mxGeometry>
        </mxCell>
        <mxCell id="yNIfGoefYe46fEr91YX2-18" value="Yes" style="edgeLabel;html=1;align=center;verticalAlign=middle;resizable=0;points=[];" vertex="1" connectable="0" parent="yNIfGoefYe46fEr91YX2-16">
          <mxGeometry x="0.1418" y="1" relative="1" as="geometry">
            <mxPoint as="offset" />
          </mxGeometry>
        </mxCell>
        <mxCell id="yNIfGoefYe46fEr91YX2-28" value="No" style="edgeStyle=orthogonalEdgeStyle;rounded=0;orthogonalLoop=1;jettySize=auto;html=1;exitX=0.5;exitY=1;exitDx=0;exitDy=0;entryX=0.5;entryY=0;entryDx=0;entryDy=0;" edge="1" parent="1" target="yNIfGoefYe46fEr91YX2-27">
          <mxGeometry relative="1" as="geometry">
            <mxPoint x="360" y="-767" as="sourcePoint" />
            <Array as="points">
              <mxPoint x="360" y="-727" />
              <mxPoint x="360" y="-727" />
            </Array>
          </mxGeometry>
        </mxCell>
        <mxCell id="yNIfGoefYe46fEr91YX2-21" style="edgeStyle=orthogonalEdgeStyle;rounded=0;orthogonalLoop=1;jettySize=auto;html=1;exitX=0.5;exitY=0;exitDx=0;exitDy=0;" edge="1" parent="1">
          <mxGeometry relative="1" as="geometry">
            <mxPoint x="515" y="-767" as="targetPoint" />
            <mxPoint x="515" y="-767" as="sourcePoint" />
          </mxGeometry>
        </mxCell>
        <mxCell id="yNIfGoefYe46fEr91YX2-22" value="Yes" style="edgeStyle=orthogonalEdgeStyle;rounded=0;orthogonalLoop=1;jettySize=auto;html=1;exitX=1;exitY=0.5;exitDx=0;exitDy=0;entryX=0;entryY=0.5;entryDx=0;entryDy=0;entryPerimeter=0;" edge="1" parent="1" target="yNIfGoefYe46fEr91YX2-40">
          <mxGeometry relative="1" as="geometry">
            <mxPoint x="630" y="-712" as="targetPoint" />
            <mxPoint x="570" y="-712" as="sourcePoint" />
          </mxGeometry>
        </mxCell>
        <mxCell id="yNIfGoefYe46fEr91YX2-24" style="edgeStyle=orthogonalEdgeStyle;rounded=0;orthogonalLoop=1;jettySize=auto;html=1;exitX=0;exitY=0.5;exitDx=0;exitDy=0;" edge="1" parent="1">
          <mxGeometry relative="1" as="geometry">
            <mxPoint x="190" y="-657" as="targetPoint" />
            <mxPoint x="310" y="-657" as="sourcePoint" />
          </mxGeometry>
        </mxCell>
        <mxCell id="yNIfGoefYe46fEr91YX2-36" value="Yes" style="edgeStyle=orthogonalEdgeStyle;rounded=0;orthogonalLoop=1;jettySize=auto;html=1;exitX=0.5;exitY=1;exitDx=0;exitDy=0;exitPerimeter=0;" edge="1" parent="1" source="yNIfGoefYe46fEr91YX2-26">
          <mxGeometry relative="1" as="geometry">
            <mxPoint x="240" y="-537" as="targetPoint" />
            <Array as="points">
              <mxPoint x="125" y="-537" />
            </Array>
          </mxGeometry>
        </mxCell>
        <mxCell id="yNIfGoefYe46fEr91YX2-37" style="edgeStyle=orthogonalEdgeStyle;rounded=0;orthogonalLoop=1;jettySize=auto;html=1;exitX=0.5;exitY=1;exitDx=0;exitDy=0;exitPerimeter=0;" edge="1" parent="1" source="yNIfGoefYe46fEr91YX2-26">
          <mxGeometry relative="1" as="geometry">
            <mxPoint x="125" y="-457" as="targetPoint" />
          </mxGeometry>
        </mxCell>
        <mxCell id="yNIfGoefYe46fEr91YX2-38" value="No" style="edgeLabel;html=1;align=center;verticalAlign=middle;resizable=0;points=[];" vertex="1" connectable="0" parent="yNIfGoefYe46fEr91YX2-37">
          <mxGeometry x="0.2296" y="2" relative="1" as="geometry">
            <mxPoint as="offset" />
          </mxGeometry>
        </mxCell>
        <mxCell id="yNIfGoefYe46fEr91YX2-26" value="Household&lt;br&gt;items?&lt;br&gt;(i.e. batteries,&lt;br&gt;vehicle stuff?&lt;br&gt;light bulbs" style="strokeWidth=2;html=1;shape=mxgraph.flowchart.decision;whiteSpace=wrap;" vertex="1" parent="1">
          <mxGeometry x="60" y="-722" width="130" height="130" as="geometry" />
        </mxCell>
        <mxCell id="yNIfGoefYe46fEr91YX2-27" value="Add Item(s) to cart." style="rounded=1;whiteSpace=wrap;html=1;absoluteArcSize=1;arcSize=14;strokeWidth=2;" vertex="1" parent="1">
          <mxGeometry x="310" y="-697" width="100" height="100" as="geometry" />
        </mxCell>
        <mxCell id="yNIfGoefYe46fEr91YX2-29" value="Are&lt;br style=&quot;border-color: var(--border-color);&quot;&gt;Electronics&lt;br style=&quot;border-color: var(--border-color);&quot;&gt;on the list?" style="strokeWidth=2;html=1;shape=mxgraph.flowchart.decision;whiteSpace=wrap;" vertex="1" parent="1">
          <mxGeometry x="310" y="-867" width="100" height="100" as="geometry" />
        </mxCell>
        <mxCell id="yNIfGoefYe46fEr91YX2-42" style="edgeStyle=orthogonalEdgeStyle;rounded=0;orthogonalLoop=1;jettySize=auto;html=1;exitX=0.5;exitY=1;exitDx=0;exitDy=0;exitPerimeter=0;entryX=1;entryY=0.5;entryDx=0;entryDy=0;" edge="1" parent="1" source="yNIfGoefYe46fEr91YX2-30" target="yNIfGoefYe46fEr91YX2-27">
          <mxGeometry relative="1" as="geometry" />
        </mxCell>
        <mxCell id="yNIfGoefYe46fEr91YX2-43" value="No" style="edgeLabel;html=1;align=center;verticalAlign=middle;resizable=0;points=[];" vertex="1" connectable="0" parent="yNIfGoefYe46fEr91YX2-42">
          <mxGeometry x="0.04" y="2" relative="1" as="geometry">
            <mxPoint as="offset" />
          </mxGeometry>
        </mxCell>
        <mxCell id="yNIfGoefYe46fEr91YX2-30" value="Did&lt;br style=&quot;border-color: var(--border-color);&quot;&gt;You Get&lt;br style=&quot;border-color: var(--border-color);&quot;&gt;Distracted?" style="strokeWidth=2;html=1;shape=mxgraph.flowchart.decision;whiteSpace=wrap;" vertex="1" parent="1">
          <mxGeometry x="460" y="-767" width="110" height="110" as="geometry" />
        </mxCell>
        <mxCell id="yNIfGoefYe46fEr91YX2-46" style="edgeStyle=orthogonalEdgeStyle;rounded=0;orthogonalLoop=1;jettySize=auto;html=1;exitX=1;exitY=0.5;exitDx=0;exitDy=0;exitPerimeter=0;entryX=0;entryY=0.5;entryDx=0;entryDy=0;entryPerimeter=0;" edge="1" parent="1" source="yNIfGoefYe46fEr91YX2-39" target="yNIfGoefYe46fEr91YX2-50">
          <mxGeometry relative="1" as="geometry">
            <mxPoint x="430" y="-537" as="targetPoint" />
          </mxGeometry>
        </mxCell>
        <mxCell id="yNIfGoefYe46fEr91YX2-47" value="Yes" style="edgeLabel;html=1;align=center;verticalAlign=middle;resizable=0;points=[];" vertex="1" connectable="0" parent="yNIfGoefYe46fEr91YX2-46">
          <mxGeometry x="-0.23" y="-2" relative="1" as="geometry">
            <mxPoint as="offset" />
          </mxGeometry>
        </mxCell>
        <mxCell id="yNIfGoefYe46fEr91YX2-48" style="edgeStyle=orthogonalEdgeStyle;rounded=0;orthogonalLoop=1;jettySize=auto;html=1;exitX=0.5;exitY=1;exitDx=0;exitDy=0;exitPerimeter=0;entryX=1;entryY=0.5;entryDx=0;entryDy=0;" edge="1" parent="1" source="yNIfGoefYe46fEr91YX2-39" target="yNIfGoefYe46fEr91YX2-44">
          <mxGeometry relative="1" as="geometry" />
        </mxCell>
        <mxCell id="yNIfGoefYe46fEr91YX2-49" value="No" style="edgeLabel;html=1;align=center;verticalAlign=middle;resizable=0;points=[];" vertex="1" connectable="0" parent="yNIfGoefYe46fEr91YX2-48">
          <mxGeometry x="0.12" relative="1" as="geometry">
            <mxPoint as="offset" />
          </mxGeometry>
        </mxCell>
        <mxCell id="yNIfGoefYe46fEr91YX2-39" value="Did&lt;br style=&quot;border-color: var(--border-color);&quot;&gt;You Get&lt;br style=&quot;border-color: var(--border-color);&quot;&gt;Distracted?" style="strokeWidth=2;html=1;shape=mxgraph.flowchart.decision;whiteSpace=wrap;" vertex="1" parent="1">
          <mxGeometry x="240" y="-592" width="110" height="110" as="geometry" />
        </mxCell>
        <mxCell id="yNIfGoefYe46fEr91YX2-165" style="edgeStyle=orthogonalEdgeStyle;rounded=0;orthogonalLoop=1;jettySize=auto;html=1;exitX=1;exitY=0.5;exitDx=0;exitDy=0;exitPerimeter=0;entryX=1;entryY=0.5;entryDx=0;entryDy=0;entryPerimeter=0;" edge="1" parent="1" source="yNIfGoefYe46fEr91YX2-40" target="yNIfGoefYe46fEr91YX2-164">
          <mxGeometry relative="1" as="geometry" />
        </mxCell>
        <mxCell id="yNIfGoefYe46fEr91YX2-40" value="Browsing&lt;br&gt;electronics" style="strokeWidth=2;html=1;shape=mxgraph.flowchart.delay;whiteSpace=wrap;" vertex="1" parent="1">
          <mxGeometry x="600" y="-742" width="100" height="60" as="geometry" />
        </mxCell>
        <mxCell id="yNIfGoefYe46fEr91YX2-51" style="edgeStyle=orthogonalEdgeStyle;rounded=0;orthogonalLoop=1;jettySize=auto;html=1;exitX=0.5;exitY=1;exitDx=0;exitDy=0;" edge="1" parent="1" source="yNIfGoefYe46fEr91YX2-44" target="yNIfGoefYe46fEr91YX2-52">
          <mxGeometry relative="1" as="geometry">
            <mxPoint x="125" y="-297" as="targetPoint" />
          </mxGeometry>
        </mxCell>
        <mxCell id="yNIfGoefYe46fEr91YX2-44" value="Add Item(s) to cart." style="rounded=1;whiteSpace=wrap;html=1;absoluteArcSize=1;arcSize=14;strokeWidth=2;" vertex="1" parent="1">
          <mxGeometry x="75" y="-457" width="100" height="100" as="geometry" />
        </mxCell>
        <mxCell id="yNIfGoefYe46fEr91YX2-172" style="edgeStyle=orthogonalEdgeStyle;rounded=0;orthogonalLoop=1;jettySize=auto;html=1;exitX=1;exitY=0.5;exitDx=0;exitDy=0;exitPerimeter=0;entryX=0;entryY=0.5;entryDx=0;entryDy=0;entryPerimeter=0;" edge="1" parent="1" source="yNIfGoefYe46fEr91YX2-50" target="yNIfGoefYe46fEr91YX2-171">
          <mxGeometry relative="1" as="geometry" />
        </mxCell>
        <mxCell id="yNIfGoefYe46fEr91YX2-50" value="Browsing Section" style="strokeWidth=2;html=1;shape=mxgraph.flowchart.delay;whiteSpace=wrap;" vertex="1" parent="1">
          <mxGeometry x="380" y="-567" width="100" height="60" as="geometry" />
        </mxCell>
        <mxCell id="yNIfGoefYe46fEr91YX2-53" style="edgeStyle=orthogonalEdgeStyle;rounded=0;orthogonalLoop=1;jettySize=auto;html=1;exitX=1;exitY=0.5;exitDx=0;exitDy=0;exitPerimeter=0;" edge="1" parent="1" source="yNIfGoefYe46fEr91YX2-52">
          <mxGeometry relative="1" as="geometry">
            <mxPoint x="270" y="-247" as="targetPoint" />
          </mxGeometry>
        </mxCell>
        <mxCell id="yNIfGoefYe46fEr91YX2-54" value="Yes" style="edgeLabel;html=1;align=center;verticalAlign=middle;resizable=0;points=[];" vertex="1" connectable="0" parent="yNIfGoefYe46fEr91YX2-53">
          <mxGeometry x="-0.2674" relative="1" as="geometry">
            <mxPoint as="offset" />
          </mxGeometry>
        </mxCell>
        <mxCell id="yNIfGoefYe46fEr91YX2-55" value="No" style="edgeStyle=orthogonalEdgeStyle;rounded=0;orthogonalLoop=1;jettySize=auto;html=1;exitX=0.5;exitY=1;exitDx=0;exitDy=0;exitPerimeter=0;" edge="1" parent="1" source="yNIfGoefYe46fEr91YX2-52">
          <mxGeometry relative="1" as="geometry">
            <mxPoint x="125" y="-137" as="targetPoint" />
          </mxGeometry>
        </mxCell>
        <mxCell id="yNIfGoefYe46fEr91YX2-52" value="Produce?" style="strokeWidth=2;html=1;shape=mxgraph.flowchart.decision;whiteSpace=wrap;" vertex="1" parent="1">
          <mxGeometry x="75" y="-297" width="100" height="100" as="geometry" />
        </mxCell>
        <mxCell id="yNIfGoefYe46fEr91YX2-60" style="edgeStyle=orthogonalEdgeStyle;rounded=0;orthogonalLoop=1;jettySize=auto;html=1;exitX=1;exitY=0.5;exitDx=0;exitDy=0;exitPerimeter=0;entryX=0.5;entryY=1;entryDx=0;entryDy=0;" edge="1" parent="1" source="yNIfGoefYe46fEr91YX2-57" target="yNIfGoefYe46fEr91YX2-59">
          <mxGeometry relative="1" as="geometry" />
        </mxCell>
        <mxCell id="yNIfGoefYe46fEr91YX2-61" value="No" style="edgeLabel;html=1;align=center;verticalAlign=middle;resizable=0;points=[];" vertex="1" connectable="0" parent="yNIfGoefYe46fEr91YX2-60">
          <mxGeometry x="-0.1153" y="1" relative="1" as="geometry">
            <mxPoint as="offset" />
          </mxGeometry>
        </mxCell>
        <mxCell id="yNIfGoefYe46fEr91YX2-62" style="edgeStyle=orthogonalEdgeStyle;rounded=0;orthogonalLoop=1;jettySize=auto;html=1;exitX=0.5;exitY=1;exitDx=0;exitDy=0;exitPerimeter=0;" edge="1" parent="1" source="yNIfGoefYe46fEr91YX2-57">
          <mxGeometry relative="1" as="geometry">
            <mxPoint x="190" y="-7" as="targetPoint" />
          </mxGeometry>
        </mxCell>
        <mxCell id="yNIfGoefYe46fEr91YX2-63" value="Yes" style="edgeLabel;html=1;align=center;verticalAlign=middle;resizable=0;points=[];" vertex="1" connectable="0" parent="yNIfGoefYe46fEr91YX2-62">
          <mxGeometry x="-0.2047" relative="1" as="geometry">
            <mxPoint as="offset" />
          </mxGeometry>
        </mxCell>
        <mxCell id="yNIfGoefYe46fEr91YX2-57" value="Did&lt;br style=&quot;border-color: var(--border-color);&quot;&gt;You Get&lt;br style=&quot;border-color: var(--border-color);&quot;&gt;Distracted?" style="strokeWidth=2;html=1;shape=mxgraph.flowchart.decision;whiteSpace=wrap;" vertex="1" parent="1">
          <mxGeometry x="70" y="-137" width="110" height="110" as="geometry" />
        </mxCell>
        <mxCell id="yNIfGoefYe46fEr91YX2-68" style="edgeStyle=orthogonalEdgeStyle;rounded=0;orthogonalLoop=1;jettySize=auto;html=1;exitX=1;exitY=0.5;exitDx=0;exitDy=0;entryX=0;entryY=0.5;entryDx=0;entryDy=0;entryPerimeter=0;" edge="1" parent="1" source="yNIfGoefYe46fEr91YX2-59" target="yNIfGoefYe46fEr91YX2-67">
          <mxGeometry relative="1" as="geometry" />
        </mxCell>
        <mxCell id="yNIfGoefYe46fEr91YX2-59" value="Add Item(s) to cart." style="rounded=1;whiteSpace=wrap;html=1;absoluteArcSize=1;arcSize=14;strokeWidth=2;" vertex="1" parent="1">
          <mxGeometry x="270" y="-297" width="100" height="100" as="geometry" />
        </mxCell>
        <mxCell id="yNIfGoefYe46fEr91YX2-66" style="edgeStyle=orthogonalEdgeStyle;rounded=0;orthogonalLoop=1;jettySize=auto;html=1;exitX=1;exitY=0.5;exitDx=0;exitDy=0;exitPerimeter=0;entryX=0;entryY=0.5;entryDx=0;entryDy=0;entryPerimeter=0;" edge="1" parent="1" source="yNIfGoefYe46fEr91YX2-64" target="yNIfGoefYe46fEr91YX2-65">
          <mxGeometry relative="1" as="geometry" />
        </mxCell>
        <mxCell id="yNIfGoefYe46fEr91YX2-64" value="Browsing Produce" style="strokeWidth=2;html=1;shape=mxgraph.flowchart.delay;whiteSpace=wrap;" vertex="1" parent="1">
          <mxGeometry x="190" y="-37" width="100" height="60" as="geometry" />
        </mxCell>
        <mxCell id="yNIfGoefYe46fEr91YX2-69" style="edgeStyle=orthogonalEdgeStyle;rounded=0;orthogonalLoop=1;jettySize=auto;html=1;exitX=0.5;exitY=0;exitDx=0;exitDy=0;exitPerimeter=0;entryX=0.5;entryY=1;entryDx=0;entryDy=0;" edge="1" parent="1" source="yNIfGoefYe46fEr91YX2-65" target="yNIfGoefYe46fEr91YX2-59">
          <mxGeometry relative="1" as="geometry" />
        </mxCell>
        <mxCell id="yNIfGoefYe46fEr91YX2-70" value="Yes" style="edgeLabel;html=1;align=center;verticalAlign=middle;resizable=0;points=[];" vertex="1" connectable="0" parent="yNIfGoefYe46fEr91YX2-69">
          <mxGeometry x="-0.4822" y="2" relative="1" as="geometry">
            <mxPoint as="offset" />
          </mxGeometry>
        </mxCell>
        <mxCell id="yNIfGoefYe46fEr91YX2-71" style="edgeStyle=orthogonalEdgeStyle;rounded=0;orthogonalLoop=1;jettySize=auto;html=1;exitX=1;exitY=0.5;exitDx=0;exitDy=0;exitPerimeter=0;entryX=0.5;entryY=1;entryDx=0;entryDy=0;entryPerimeter=0;" edge="1" parent="1" source="yNIfGoefYe46fEr91YX2-65" target="yNIfGoefYe46fEr91YX2-67">
          <mxGeometry relative="1" as="geometry" />
        </mxCell>
        <mxCell id="yNIfGoefYe46fEr91YX2-72" value="No" style="edgeLabel;html=1;align=center;verticalAlign=middle;resizable=0;points=[];" vertex="1" connectable="0" parent="yNIfGoefYe46fEr91YX2-71">
          <mxGeometry x="-0.7644" y="2" relative="1" as="geometry">
            <mxPoint as="offset" />
          </mxGeometry>
        </mxCell>
        <mxCell id="yNIfGoefYe46fEr91YX2-65" value="Find&lt;br&gt;Something&lt;br&gt;you want?" style="strokeWidth=2;html=1;shape=mxgraph.flowchart.decision;whiteSpace=wrap;" vertex="1" parent="1">
          <mxGeometry x="310" y="-57" width="100" height="100" as="geometry" />
        </mxCell>
        <mxCell id="yNIfGoefYe46fEr91YX2-73" value="Yes" style="edgeStyle=orthogonalEdgeStyle;rounded=0;orthogonalLoop=1;jettySize=auto;html=1;exitX=1;exitY=0.5;exitDx=0;exitDy=0;exitPerimeter=0;entryX=0;entryY=0.5;entryDx=0;entryDy=0;" edge="1" parent="1" source="yNIfGoefYe46fEr91YX2-67" target="yNIfGoefYe46fEr91YX2-76">
          <mxGeometry relative="1" as="geometry">
            <mxPoint x="670" y="-217" as="targetPoint" />
          </mxGeometry>
        </mxCell>
        <mxCell id="yNIfGoefYe46fEr91YX2-74" value="No" style="edgeStyle=orthogonalEdgeStyle;rounded=0;orthogonalLoop=1;jettySize=auto;html=1;exitX=1;exitY=0.5;exitDx=0;exitDy=0;exitPerimeter=0;entryX=0.5;entryY=0;entryDx=0;entryDy=0;entryPerimeter=0;" edge="1" parent="1" source="yNIfGoefYe46fEr91YX2-67" target="yNIfGoefYe46fEr91YX2-75">
          <mxGeometry relative="1" as="geometry">
            <mxPoint x="560" y="-177" as="targetPoint" />
          </mxGeometry>
        </mxCell>
        <mxCell id="yNIfGoefYe46fEr91YX2-67" value="Deli?" style="strokeWidth=2;html=1;shape=mxgraph.flowchart.decision;whiteSpace=wrap;" vertex="1" parent="1">
          <mxGeometry x="425" y="-287" width="110" height="105" as="geometry" />
        </mxCell>
        <mxCell id="yNIfGoefYe46fEr91YX2-77" value="No" style="edgeStyle=orthogonalEdgeStyle;rounded=0;orthogonalLoop=1;jettySize=auto;html=1;exitX=0.5;exitY=1;exitDx=0;exitDy=0;exitPerimeter=0;entryX=0;entryY=0.5;entryDx=0;entryDy=0;entryPerimeter=0;" edge="1" parent="1" source="yNIfGoefYe46fEr91YX2-75" target="yNIfGoefYe46fEr91YX2-82">
          <mxGeometry relative="1" as="geometry">
            <mxPoint x="910" y="23" as="targetPoint" />
            <Array as="points">
              <mxPoint x="565" y="16" />
            </Array>
          </mxGeometry>
        </mxCell>
        <mxCell id="yNIfGoefYe46fEr91YX2-78" value="Yes" style="edgeStyle=orthogonalEdgeStyle;rounded=0;orthogonalLoop=1;jettySize=auto;html=1;exitX=1;exitY=0.5;exitDx=0;exitDy=0;exitPerimeter=0;entryX=0.372;entryY=-0.03;entryDx=0;entryDy=0;entryPerimeter=0;" edge="1" parent="1" source="yNIfGoefYe46fEr91YX2-75" target="yNIfGoefYe46fEr91YX2-79">
          <mxGeometry relative="1" as="geometry">
            <mxPoint x="670" y="-107" as="targetPoint" />
          </mxGeometry>
        </mxCell>
        <mxCell id="yNIfGoefYe46fEr91YX2-75" value="Did&lt;br style=&quot;border-color: var(--border-color);&quot;&gt;You Get&lt;br style=&quot;border-color: var(--border-color);&quot;&gt;Distracted?" style="strokeWidth=2;html=1;shape=mxgraph.flowchart.decision;whiteSpace=wrap;" vertex="1" parent="1">
          <mxGeometry x="510" y="-167" width="110" height="110" as="geometry" />
        </mxCell>
        <mxCell id="yNIfGoefYe46fEr91YX2-85" style="edgeStyle=orthogonalEdgeStyle;rounded=0;orthogonalLoop=1;jettySize=auto;html=1;exitX=1;exitY=0.5;exitDx=0;exitDy=0;entryX=0.5;entryY=0;entryDx=0;entryDy=0;entryPerimeter=0;" edge="1" parent="1" source="yNIfGoefYe46fEr91YX2-76" target="yNIfGoefYe46fEr91YX2-82">
          <mxGeometry relative="1" as="geometry" />
        </mxCell>
        <mxCell id="yNIfGoefYe46fEr91YX2-76" value="Add Item(s) to cart." style="rounded=1;whiteSpace=wrap;html=1;absoluteArcSize=1;arcSize=14;strokeWidth=2;" vertex="1" parent="1">
          <mxGeometry x="770" y="-267" width="100" height="100" as="geometry" />
        </mxCell>
        <mxCell id="yNIfGoefYe46fEr91YX2-81" style="edgeStyle=orthogonalEdgeStyle;rounded=0;orthogonalLoop=1;jettySize=auto;html=1;exitX=1;exitY=0.5;exitDx=0;exitDy=0;exitPerimeter=0;entryX=0.5;entryY=0;entryDx=0;entryDy=0;entryPerimeter=0;" edge="1" parent="1" source="yNIfGoefYe46fEr91YX2-79" target="yNIfGoefYe46fEr91YX2-80">
          <mxGeometry relative="1" as="geometry" />
        </mxCell>
        <mxCell id="yNIfGoefYe46fEr91YX2-79" value="Browsing Deli" style="strokeWidth=2;html=1;shape=mxgraph.flowchart.delay;whiteSpace=wrap;" vertex="1" parent="1">
          <mxGeometry x="610" y="-77" width="100" height="60" as="geometry" />
        </mxCell>
        <mxCell id="yNIfGoefYe46fEr91YX2-83" style="edgeStyle=orthogonalEdgeStyle;rounded=0;orthogonalLoop=1;jettySize=auto;html=1;exitX=1;exitY=0.5;exitDx=0;exitDy=0;exitPerimeter=0;entryX=0.5;entryY=1;entryDx=0;entryDy=0;" edge="1" parent="1" source="yNIfGoefYe46fEr91YX2-80" target="yNIfGoefYe46fEr91YX2-76">
          <mxGeometry relative="1" as="geometry" />
        </mxCell>
        <mxCell id="yNIfGoefYe46fEr91YX2-84" value="Yes" style="edgeLabel;html=1;align=center;verticalAlign=middle;resizable=0;points=[];" vertex="1" connectable="0" parent="yNIfGoefYe46fEr91YX2-83">
          <mxGeometry x="-0.4847" relative="1" as="geometry">
            <mxPoint as="offset" />
          </mxGeometry>
        </mxCell>
        <mxCell id="yNIfGoefYe46fEr91YX2-86" value="No" style="edgeStyle=orthogonalEdgeStyle;rounded=0;orthogonalLoop=1;jettySize=auto;html=1;exitX=0.5;exitY=1;exitDx=0;exitDy=0;exitPerimeter=0;entryX=0;entryY=0.5;entryDx=0;entryDy=0;entryPerimeter=0;" edge="1" parent="1" source="yNIfGoefYe46fEr91YX2-80" target="yNIfGoefYe46fEr91YX2-82">
          <mxGeometry relative="1" as="geometry" />
        </mxCell>
        <mxCell id="yNIfGoefYe46fEr91YX2-80" value="Find&lt;br&gt;Something&lt;br&gt;you want?" style="strokeWidth=2;html=1;shape=mxgraph.flowchart.decision;whiteSpace=wrap;" vertex="1" parent="1">
          <mxGeometry x="740" y="-107" width="100" height="100" as="geometry" />
        </mxCell>
        <mxCell id="yNIfGoefYe46fEr91YX2-87" style="edgeStyle=orthogonalEdgeStyle;rounded=0;orthogonalLoop=1;jettySize=auto;html=1;exitX=1;exitY=0.5;exitDx=0;exitDy=0;exitPerimeter=0;" edge="1" parent="1" source="yNIfGoefYe46fEr91YX2-82">
          <mxGeometry relative="1" as="geometry">
            <mxPoint x="1110" y="-137" as="targetPoint" />
          </mxGeometry>
        </mxCell>
        <mxCell id="yNIfGoefYe46fEr91YX2-88" value="Yes" style="edgeLabel;html=1;align=center;verticalAlign=middle;resizable=0;points=[];" vertex="1" connectable="0" parent="yNIfGoefYe46fEr91YX2-87">
          <mxGeometry x="0.36" y="2" relative="1" as="geometry">
            <mxPoint as="offset" />
          </mxGeometry>
        </mxCell>
        <mxCell id="yNIfGoefYe46fEr91YX2-89" value="No" style="edgeStyle=orthogonalEdgeStyle;rounded=0;orthogonalLoop=1;jettySize=auto;html=1;exitX=1;exitY=0.5;exitDx=0;exitDy=0;exitPerimeter=0;" edge="1" parent="1" source="yNIfGoefYe46fEr91YX2-82">
          <mxGeometry relative="1" as="geometry">
            <mxPoint x="1190" y="16" as="targetPoint" />
          </mxGeometry>
        </mxCell>
        <mxCell id="yNIfGoefYe46fEr91YX2-82" value="Eggs, Dairy,&lt;br&gt;Cleaning,&lt;br&gt;Pet Items?" style="strokeWidth=2;html=1;shape=mxgraph.flowchart.decision;whiteSpace=wrap;" vertex="1" parent="1">
          <mxGeometry x="950" y="-37" width="110" height="105" as="geometry" />
        </mxCell>
        <mxCell id="yNIfGoefYe46fEr91YX2-94" value="No" style="edgeStyle=orthogonalEdgeStyle;rounded=0;orthogonalLoop=1;jettySize=auto;html=1;exitX=0.5;exitY=0;exitDx=0;exitDy=0;exitPerimeter=0;" edge="1" parent="1" source="yNIfGoefYe46fEr91YX2-90">
          <mxGeometry relative="1" as="geometry">
            <mxPoint x="1270" y="-257" as="targetPoint" />
          </mxGeometry>
        </mxCell>
        <mxCell id="yNIfGoefYe46fEr91YX2-95" value="Yes" style="edgeStyle=orthogonalEdgeStyle;rounded=0;orthogonalLoop=1;jettySize=auto;html=1;exitX=1;exitY=0.5;exitDx=0;exitDy=0;exitPerimeter=0;entryX=0;entryY=0.5;entryDx=0;entryDy=0;entryPerimeter=0;" edge="1" parent="1" source="yNIfGoefYe46fEr91YX2-90" target="yNIfGoefYe46fEr91YX2-92">
          <mxGeometry relative="1" as="geometry" />
        </mxCell>
        <mxCell id="yNIfGoefYe46fEr91YX2-90" value="Did&lt;br style=&quot;border-color: var(--border-color);&quot;&gt;You Get&lt;br style=&quot;border-color: var(--border-color);&quot;&gt;Distracted?" style="strokeWidth=2;html=1;shape=mxgraph.flowchart.decision;whiteSpace=wrap;" vertex="1" parent="1">
          <mxGeometry x="1190" y="-39.5" width="110" height="110" as="geometry" />
        </mxCell>
        <mxCell id="yNIfGoefYe46fEr91YX2-93" style="edgeStyle=orthogonalEdgeStyle;rounded=0;orthogonalLoop=1;jettySize=auto;html=1;exitX=1;exitY=0.5;exitDx=0;exitDy=0;" edge="1" parent="1" source="yNIfGoefYe46fEr91YX2-91">
          <mxGeometry relative="1" as="geometry">
            <mxPoint x="1270" y="-257" as="targetPoint" />
          </mxGeometry>
        </mxCell>
        <mxCell id="yNIfGoefYe46fEr91YX2-91" value="Add Item(s) to cart." style="rounded=1;whiteSpace=wrap;html=1;absoluteArcSize=1;arcSize=14;strokeWidth=2;" vertex="1" parent="1">
          <mxGeometry x="1060" y="-237" width="100" height="100" as="geometry" />
        </mxCell>
        <mxCell id="yNIfGoefYe46fEr91YX2-97" style="edgeStyle=orthogonalEdgeStyle;rounded=0;orthogonalLoop=1;jettySize=auto;html=1;exitX=1;exitY=0.5;exitDx=0;exitDy=0;exitPerimeter=0;entryX=1;entryY=0.5;entryDx=0;entryDy=0;entryPerimeter=0;" edge="1" parent="1" source="yNIfGoefYe46fEr91YX2-92" target="yNIfGoefYe46fEr91YX2-96">
          <mxGeometry relative="1" as="geometry" />
        </mxCell>
        <mxCell id="yNIfGoefYe46fEr91YX2-92" value="Browsing Section" style="strokeWidth=2;html=1;shape=mxgraph.flowchart.delay;whiteSpace=wrap;" vertex="1" parent="1">
          <mxGeometry x="1340" y="-14.5" width="100" height="60" as="geometry" />
        </mxCell>
        <mxCell id="yNIfGoefYe46fEr91YX2-98" style="edgeStyle=orthogonalEdgeStyle;rounded=0;orthogonalLoop=1;jettySize=auto;html=1;exitX=0;exitY=0.5;exitDx=0;exitDy=0;exitPerimeter=0;entryX=0.5;entryY=1;entryDx=0;entryDy=0;jumpStyle=line;" edge="1" parent="1" source="yNIfGoefYe46fEr91YX2-96" target="yNIfGoefYe46fEr91YX2-91">
          <mxGeometry relative="1" as="geometry">
            <mxPoint x="1250" y="-97" as="targetPoint" />
          </mxGeometry>
        </mxCell>
        <mxCell id="yNIfGoefYe46fEr91YX2-99" value="Yes" style="edgeLabel;html=1;align=center;verticalAlign=middle;resizable=0;points=[];" vertex="1" connectable="0" parent="yNIfGoefYe46fEr91YX2-98">
          <mxGeometry x="-0.4963" relative="1" as="geometry">
            <mxPoint as="offset" />
          </mxGeometry>
        </mxCell>
        <mxCell id="yNIfGoefYe46fEr91YX2-100" style="edgeStyle=orthogonalEdgeStyle;rounded=0;orthogonalLoop=1;jettySize=auto;html=1;exitX=0.5;exitY=0;exitDx=0;exitDy=0;exitPerimeter=0;" edge="1" parent="1" source="yNIfGoefYe46fEr91YX2-96">
          <mxGeometry relative="1" as="geometry">
            <mxPoint x="1270" y="-257" as="targetPoint" />
          </mxGeometry>
        </mxCell>
        <mxCell id="yNIfGoefYe46fEr91YX2-101" value="No" style="edgeLabel;html=1;align=center;verticalAlign=middle;resizable=0;points=[];" vertex="1" connectable="0" parent="yNIfGoefYe46fEr91YX2-100">
          <mxGeometry x="-0.3217" y="-1" relative="1" as="geometry">
            <mxPoint as="offset" />
          </mxGeometry>
        </mxCell>
        <mxCell id="yNIfGoefYe46fEr91YX2-96" value="Find&lt;br&gt;Something&lt;br&gt;you want?" style="strokeWidth=2;html=1;shape=mxgraph.flowchart.decision;whiteSpace=wrap;" vertex="1" parent="1">
          <mxGeometry x="1340" y="-147" width="100" height="100" as="geometry" />
        </mxCell>
        <mxCell id="yNIfGoefYe46fEr91YX2-103" style="edgeStyle=orthogonalEdgeStyle;rounded=0;orthogonalLoop=1;jettySize=auto;html=1;exitX=0;exitY=0.5;exitDx=0;exitDy=0;exitPerimeter=0;entryX=1;entryY=0.5;entryDx=0;entryDy=0;" edge="1" parent="1" source="yNIfGoefYe46fEr91YX2-102" target="yNIfGoefYe46fEr91YX2-112">
          <mxGeometry relative="1" as="geometry">
            <mxPoint x="1070" y="-377" as="targetPoint" />
          </mxGeometry>
        </mxCell>
        <mxCell id="yNIfGoefYe46fEr91YX2-104" value="Yes" style="edgeLabel;html=1;align=center;verticalAlign=middle;resizable=0;points=[];" vertex="1" connectable="0" parent="yNIfGoefYe46fEr91YX2-103">
          <mxGeometry x="-0.5182" y="-1" relative="1" as="geometry">
            <mxPoint as="offset" />
          </mxGeometry>
        </mxCell>
        <mxCell id="yNIfGoefYe46fEr91YX2-105" style="edgeStyle=orthogonalEdgeStyle;rounded=0;orthogonalLoop=1;jettySize=auto;html=1;exitX=1;exitY=0.5;exitDx=0;exitDy=0;exitPerimeter=0;" edge="1" parent="1" source="yNIfGoefYe46fEr91YX2-102">
          <mxGeometry relative="1" as="geometry">
            <mxPoint x="1390" y="-377" as="targetPoint" />
          </mxGeometry>
        </mxCell>
        <mxCell id="yNIfGoefYe46fEr91YX2-106" value="No" style="edgeLabel;html=1;align=center;verticalAlign=middle;resizable=0;points=[];" vertex="1" connectable="0" parent="yNIfGoefYe46fEr91YX2-105">
          <mxGeometry x="-0.3143" relative="1" as="geometry">
            <mxPoint as="offset" />
          </mxGeometry>
        </mxCell>
        <mxCell id="yNIfGoefYe46fEr91YX2-102" value="Freezer&lt;br&gt;Cooler?" style="strokeWidth=2;html=1;shape=mxgraph.flowchart.decision;whiteSpace=wrap;" vertex="1" parent="1">
          <mxGeometry x="1220" y="-357" width="100" height="100" as="geometry" />
        </mxCell>
        <mxCell id="yNIfGoefYe46fEr91YX2-109" value="Yes" style="edgeStyle=orthogonalEdgeStyle;rounded=0;orthogonalLoop=1;jettySize=auto;html=1;exitX=0;exitY=0.5;exitDx=0;exitDy=0;exitPerimeter=0;entryX=0;entryY=0.5;entryDx=0;entryDy=0;entryPerimeter=0;" edge="1" parent="1" source="yNIfGoefYe46fEr91YX2-107" target="yNIfGoefYe46fEr91YX2-108">
          <mxGeometry relative="1" as="geometry" />
        </mxCell>
        <mxCell id="yNIfGoefYe46fEr91YX2-107" value="Did&lt;br style=&quot;border-color: var(--border-color);&quot;&gt;You Get&lt;br style=&quot;border-color: var(--border-color);&quot;&gt;Distracted?" style="strokeWidth=2;html=1;shape=mxgraph.flowchart.decision;whiteSpace=wrap;" vertex="1" parent="1">
          <mxGeometry x="1335" y="-482" width="110" height="110" as="geometry" />
        </mxCell>
        <mxCell id="yNIfGoefYe46fEr91YX2-111" style="edgeStyle=orthogonalEdgeStyle;rounded=0;orthogonalLoop=1;jettySize=auto;html=1;exitX=1;exitY=0.5;exitDx=0;exitDy=0;exitPerimeter=0;" edge="1" parent="1" source="yNIfGoefYe46fEr91YX2-108" target="yNIfGoefYe46fEr91YX2-110">
          <mxGeometry relative="1" as="geometry" />
        </mxCell>
        <mxCell id="yNIfGoefYe46fEr91YX2-108" value="Browsing&lt;br&gt;Freezer/Cooler" style="strokeWidth=2;html=1;shape=mxgraph.flowchart.delay;whiteSpace=wrap;direction=west;" vertex="1" parent="1">
          <mxGeometry x="1200" y="-457" width="100" height="60" as="geometry" />
        </mxCell>
        <mxCell id="yNIfGoefYe46fEr91YX2-113" style="edgeStyle=orthogonalEdgeStyle;rounded=0;orthogonalLoop=1;jettySize=auto;html=1;exitX=0;exitY=0.5;exitDx=0;exitDy=0;exitPerimeter=0;entryX=0.5;entryY=0;entryDx=0;entryDy=0;" edge="1" parent="1" source="yNIfGoefYe46fEr91YX2-110" target="yNIfGoefYe46fEr91YX2-112">
          <mxGeometry relative="1" as="geometry" />
        </mxCell>
        <mxCell id="yNIfGoefYe46fEr91YX2-114" value="Yes" style="edgeLabel;html=1;align=center;verticalAlign=middle;resizable=0;points=[];" vertex="1" connectable="0" parent="yNIfGoefYe46fEr91YX2-113">
          <mxGeometry x="-0.7" relative="1" as="geometry">
            <mxPoint as="offset" />
          </mxGeometry>
        </mxCell>
        <mxCell id="yNIfGoefYe46fEr91YX2-117" style="edgeStyle=orthogonalEdgeStyle;rounded=0;orthogonalLoop=1;jettySize=auto;html=1;exitX=0.5;exitY=0;exitDx=0;exitDy=0;exitPerimeter=0;entryX=1;entryY=0.5;entryDx=0;entryDy=0;entryPerimeter=0;" edge="1" parent="1" source="yNIfGoefYe46fEr91YX2-110" target="yNIfGoefYe46fEr91YX2-115">
          <mxGeometry relative="1" as="geometry" />
        </mxCell>
        <mxCell id="yNIfGoefYe46fEr91YX2-118" value="No" style="edgeLabel;html=1;align=center;verticalAlign=middle;resizable=0;points=[];" vertex="1" connectable="0" parent="yNIfGoefYe46fEr91YX2-117">
          <mxGeometry x="-0.4841" y="1" relative="1" as="geometry">
            <mxPoint as="offset" />
          </mxGeometry>
        </mxCell>
        <mxCell id="yNIfGoefYe46fEr91YX2-110" value="Find&lt;br&gt;Something&lt;br&gt;you want?" style="strokeWidth=2;html=1;shape=mxgraph.flowchart.decision;whiteSpace=wrap;" vertex="1" parent="1">
          <mxGeometry x="1100" y="-537" width="100" height="100" as="geometry" />
        </mxCell>
        <mxCell id="yNIfGoefYe46fEr91YX2-116" style="edgeStyle=orthogonalEdgeStyle;rounded=0;orthogonalLoop=1;jettySize=auto;html=1;exitX=0;exitY=0.5;exitDx=0;exitDy=0;entryX=0.5;entryY=1;entryDx=0;entryDy=0;entryPerimeter=0;" edge="1" parent="1" source="yNIfGoefYe46fEr91YX2-112" target="yNIfGoefYe46fEr91YX2-115">
          <mxGeometry relative="1" as="geometry" />
        </mxCell>
        <mxCell id="yNIfGoefYe46fEr91YX2-112" value="Add Item(s) to cart." style="rounded=1;whiteSpace=wrap;html=1;absoluteArcSize=1;arcSize=14;strokeWidth=2;" vertex="1" parent="1">
          <mxGeometry x="950" y="-427" width="100" height="100" as="geometry" />
        </mxCell>
        <mxCell id="yNIfGoefYe46fEr91YX2-119" value="Yes" style="edgeStyle=orthogonalEdgeStyle;rounded=0;orthogonalLoop=1;jettySize=auto;html=1;exitX=0.5;exitY=0;exitDx=0;exitDy=0;exitPerimeter=0;entryX=0.5;entryY=1;entryDx=0;entryDy=0;" edge="1" parent="1" source="yNIfGoefYe46fEr91YX2-115" target="yNIfGoefYe46fEr91YX2-123">
          <mxGeometry relative="1" as="geometry">
            <mxPoint x="910" y="-657" as="targetPoint" />
            <Array as="points">
              <mxPoint x="890" y="-597" />
              <mxPoint x="920" y="-597" />
            </Array>
          </mxGeometry>
        </mxCell>
        <mxCell id="yNIfGoefYe46fEr91YX2-120" style="edgeStyle=orthogonalEdgeStyle;rounded=0;orthogonalLoop=1;jettySize=auto;html=1;exitX=0.5;exitY=0;exitDx=0;exitDy=0;exitPerimeter=0;entryX=0;entryY=0.5;entryDx=0;entryDy=0;entryPerimeter=0;jumpStyle=line;" edge="1" parent="1" source="yNIfGoefYe46fEr91YX2-115" target="yNIfGoefYe46fEr91YX2-122">
          <mxGeometry relative="1" as="geometry">
            <mxPoint x="990" y="-617" as="targetPoint" />
          </mxGeometry>
        </mxCell>
        <mxCell id="yNIfGoefYe46fEr91YX2-121" value="No" style="edgeLabel;html=1;align=center;verticalAlign=middle;resizable=0;points=[];" vertex="1" connectable="0" parent="yNIfGoefYe46fEr91YX2-120">
          <mxGeometry x="0.2282" y="-2" relative="1" as="geometry">
            <mxPoint as="offset" />
          </mxGeometry>
        </mxCell>
        <mxCell id="yNIfGoefYe46fEr91YX2-115" value="Dry Foods?" style="strokeWidth=2;html=1;shape=mxgraph.flowchart.decision;whiteSpace=wrap;" vertex="1" parent="1">
          <mxGeometry x="840" y="-547" width="100" height="100" as="geometry" />
        </mxCell>
        <mxCell id="yNIfGoefYe46fEr91YX2-125" value="Yes" style="edgeStyle=orthogonalEdgeStyle;rounded=0;orthogonalLoop=1;jettySize=auto;html=1;exitX=1;exitY=0.5;exitDx=0;exitDy=0;exitPerimeter=0;entryX=0;entryY=0.5;entryDx=0;entryDy=0;entryPerimeter=0;" edge="1" parent="1" source="yNIfGoefYe46fEr91YX2-122" target="yNIfGoefYe46fEr91YX2-124">
          <mxGeometry relative="1" as="geometry" />
        </mxCell>
        <mxCell id="yNIfGoefYe46fEr91YX2-128" style="edgeStyle=orthogonalEdgeStyle;rounded=0;orthogonalLoop=1;jettySize=auto;html=1;exitX=0.5;exitY=0;exitDx=0;exitDy=0;exitPerimeter=0;entryX=0.5;entryY=1;entryDx=0;entryDy=0;entryPerimeter=0;" edge="1" parent="1" source="yNIfGoefYe46fEr91YX2-122" target="yNIfGoefYe46fEr91YX2-126">
          <mxGeometry relative="1" as="geometry" />
        </mxCell>
        <mxCell id="yNIfGoefYe46fEr91YX2-129" value="No" style="edgeStyle=orthogonalEdgeStyle;rounded=0;orthogonalLoop=1;jettySize=auto;html=1;" edge="1" parent="1" source="yNIfGoefYe46fEr91YX2-122" target="yNIfGoefYe46fEr91YX2-126">
          <mxGeometry x="-0.5" relative="1" as="geometry">
            <Array as="points">
              <mxPoint x="1085" y="-707" />
              <mxPoint x="1085" y="-707" />
            </Array>
            <mxPoint as="offset" />
          </mxGeometry>
        </mxCell>
        <mxCell id="yNIfGoefYe46fEr91YX2-122" value="Did&lt;br style=&quot;border-color: var(--border-color);&quot;&gt;You Get&lt;br style=&quot;border-color: var(--border-color);&quot;&gt;Distracted?" style="strokeWidth=2;html=1;shape=mxgraph.flowchart.decision;whiteSpace=wrap;" vertex="1" parent="1">
          <mxGeometry x="1030" y="-687" width="110" height="110" as="geometry" />
        </mxCell>
        <mxCell id="yNIfGoefYe46fEr91YX2-127" style="edgeStyle=orthogonalEdgeStyle;rounded=0;orthogonalLoop=1;jettySize=auto;html=1;exitX=1;exitY=0.5;exitDx=0;exitDy=0;entryX=0;entryY=0.5;entryDx=0;entryDy=0;entryPerimeter=0;" edge="1" parent="1" source="yNIfGoefYe46fEr91YX2-123" target="yNIfGoefYe46fEr91YX2-126">
          <mxGeometry relative="1" as="geometry" />
        </mxCell>
        <mxCell id="yNIfGoefYe46fEr91YX2-123" value="Add Item(s) to cart." style="rounded=1;whiteSpace=wrap;html=1;absoluteArcSize=1;arcSize=14;strokeWidth=2;" vertex="1" parent="1">
          <mxGeometry x="870" y="-787" width="100" height="100" as="geometry" />
        </mxCell>
        <mxCell id="yNIfGoefYe46fEr91YX2-131" style="edgeStyle=orthogonalEdgeStyle;rounded=0;orthogonalLoop=1;jettySize=auto;html=1;exitX=1;exitY=0.5;exitDx=0;exitDy=0;exitPerimeter=0;entryX=1;entryY=0.5;entryDx=0;entryDy=0;entryPerimeter=0;" edge="1" parent="1" source="yNIfGoefYe46fEr91YX2-124" target="yNIfGoefYe46fEr91YX2-130">
          <mxGeometry relative="1" as="geometry" />
        </mxCell>
        <mxCell id="yNIfGoefYe46fEr91YX2-124" value="Browsing&lt;br&gt;Dry Foods" style="strokeWidth=2;html=1;shape=mxgraph.flowchart.delay;whiteSpace=wrap;" vertex="1" parent="1">
          <mxGeometry x="1180" y="-662" width="100" height="60" as="geometry" />
        </mxCell>
        <mxCell id="yNIfGoefYe46fEr91YX2-136" style="edgeStyle=orthogonalEdgeStyle;rounded=0;orthogonalLoop=1;jettySize=auto;html=1;exitX=0.5;exitY=0;exitDx=0;exitDy=0;exitPerimeter=0;entryX=0;entryY=0.5;entryDx=0;entryDy=0;" edge="1" parent="1" source="yNIfGoefYe46fEr91YX2-126" target="yNIfGoefYe46fEr91YX2-138">
          <mxGeometry relative="1" as="geometry">
            <mxPoint x="1260" y="-857" as="targetPoint" />
          </mxGeometry>
        </mxCell>
        <mxCell id="yNIfGoefYe46fEr91YX2-139" value="Yes" style="edgeLabel;html=1;align=center;verticalAlign=middle;resizable=0;points=[];" vertex="1" connectable="0" parent="yNIfGoefYe46fEr91YX2-136">
          <mxGeometry x="0.6502" relative="1" as="geometry">
            <mxPoint as="offset" />
          </mxGeometry>
        </mxCell>
        <mxCell id="yNIfGoefYe46fEr91YX2-140" style="edgeStyle=orthogonalEdgeStyle;rounded=0;orthogonalLoop=1;jettySize=auto;html=1;exitX=0.5;exitY=0;exitDx=0;exitDy=0;exitPerimeter=0;entryX=0.5;entryY=1;entryDx=0;entryDy=0;entryPerimeter=0;" edge="1" parent="1" source="yNIfGoefYe46fEr91YX2-126" target="yNIfGoefYe46fEr91YX2-141">
          <mxGeometry relative="1" as="geometry">
            <mxPoint x="1120" y="-937" as="targetPoint" />
          </mxGeometry>
        </mxCell>
        <mxCell id="yNIfGoefYe46fEr91YX2-142" value="No" style="edgeLabel;html=1;align=center;verticalAlign=middle;resizable=0;points=[];" vertex="1" connectable="0" parent="yNIfGoefYe46fEr91YX2-140">
          <mxGeometry x="0.44" relative="1" as="geometry">
            <mxPoint as="offset" />
          </mxGeometry>
        </mxCell>
        <mxCell id="yNIfGoefYe46fEr91YX2-126" value="Dry Foods?" style="strokeWidth=2;html=1;shape=mxgraph.flowchart.decision;whiteSpace=wrap;" vertex="1" parent="1">
          <mxGeometry x="1035" y="-837" width="100" height="100" as="geometry" />
        </mxCell>
        <mxCell id="yNIfGoefYe46fEr91YX2-132" style="edgeStyle=orthogonalEdgeStyle;rounded=0;orthogonalLoop=1;jettySize=auto;html=1;exitX=0.5;exitY=0;exitDx=0;exitDy=0;exitPerimeter=0;entryX=1;entryY=0.5;entryDx=0;entryDy=0;entryPerimeter=0;" edge="1" parent="1" source="yNIfGoefYe46fEr91YX2-130" target="yNIfGoefYe46fEr91YX2-126">
          <mxGeometry relative="1" as="geometry" />
        </mxCell>
        <mxCell id="yNIfGoefYe46fEr91YX2-133" value="No" style="edgeLabel;html=1;align=center;verticalAlign=middle;resizable=0;points=[];" vertex="1" connectable="0" parent="yNIfGoefYe46fEr91YX2-132">
          <mxGeometry x="-0.2591" y="-2" relative="1" as="geometry">
            <mxPoint as="offset" />
          </mxGeometry>
        </mxCell>
        <mxCell id="yNIfGoefYe46fEr91YX2-134" style="edgeStyle=orthogonalEdgeStyle;rounded=0;orthogonalLoop=1;jettySize=auto;html=1;exitX=0;exitY=0.5;exitDx=0;exitDy=0;exitPerimeter=0;jumpStyle=line;entryX=1.004;entryY=0.914;entryDx=0;entryDy=0;entryPerimeter=0;" edge="1" parent="1" source="yNIfGoefYe46fEr91YX2-130" target="yNIfGoefYe46fEr91YX2-123">
          <mxGeometry relative="1" as="geometry">
            <mxPoint x="980" y="-697" as="targetPoint" />
          </mxGeometry>
        </mxCell>
        <mxCell id="yNIfGoefYe46fEr91YX2-135" value="Yes" style="edgeLabel;html=1;align=center;verticalAlign=middle;resizable=0;points=[];" vertex="1" connectable="0" parent="yNIfGoefYe46fEr91YX2-134">
          <mxGeometry x="-0.744" y="2" relative="1" as="geometry">
            <mxPoint as="offset" />
          </mxGeometry>
        </mxCell>
        <mxCell id="yNIfGoefYe46fEr91YX2-130" value="Find&lt;br&gt;Something&lt;br&gt;you want?" style="strokeWidth=2;html=1;shape=mxgraph.flowchart.decision;whiteSpace=wrap;" vertex="1" parent="1">
          <mxGeometry x="1160" y="-767" width="100" height="100" as="geometry" />
        </mxCell>
        <mxCell id="yNIfGoefYe46fEr91YX2-154" style="edgeStyle=orthogonalEdgeStyle;rounded=0;orthogonalLoop=1;jettySize=auto;html=1;exitX=1;exitY=0.5;exitDx=0;exitDy=0;entryX=0;entryY=0.5;entryDx=0;entryDy=0;entryPerimeter=0;" edge="1" parent="1" source="yNIfGoefYe46fEr91YX2-138" target="yNIfGoefYe46fEr91YX2-147">
          <mxGeometry relative="1" as="geometry" />
        </mxCell>
        <mxCell id="yNIfGoefYe46fEr91YX2-138" value="Add Item(s) to cart." style="rounded=1;whiteSpace=wrap;html=1;absoluteArcSize=1;arcSize=14;strokeWidth=2;" vertex="1" parent="1">
          <mxGeometry x="1240" y="-867" width="100" height="100" as="geometry" />
        </mxCell>
        <mxCell id="yNIfGoefYe46fEr91YX2-143" value="Yes" style="edgeStyle=orthogonalEdgeStyle;rounded=0;orthogonalLoop=1;jettySize=auto;html=1;exitX=1;exitY=0.5;exitDx=0;exitDy=0;exitPerimeter=0;" edge="1" parent="1" source="yNIfGoefYe46fEr91YX2-141">
          <mxGeometry relative="1" as="geometry">
            <mxPoint x="1230" y="-1002" as="targetPoint" />
          </mxGeometry>
        </mxCell>
        <mxCell id="yNIfGoefYe46fEr91YX2-145" style="edgeStyle=orthogonalEdgeStyle;rounded=0;orthogonalLoop=1;jettySize=auto;html=1;exitX=0.5;exitY=0;exitDx=0;exitDy=0;exitPerimeter=0;entryX=0.5;entryY=0;entryDx=0;entryDy=0;entryPerimeter=0;" edge="1" parent="1" source="yNIfGoefYe46fEr91YX2-141" target="yNIfGoefYe46fEr91YX2-147">
          <mxGeometry relative="1" as="geometry">
            <mxPoint x="1230" y="-1097" as="targetPoint" />
          </mxGeometry>
        </mxCell>
        <mxCell id="yNIfGoefYe46fEr91YX2-146" value="No" style="edgeLabel;html=1;align=center;verticalAlign=middle;resizable=0;points=[];" vertex="1" connectable="0" parent="yNIfGoefYe46fEr91YX2-145">
          <mxGeometry x="0.2" y="3" relative="1" as="geometry">
            <mxPoint as="offset" />
          </mxGeometry>
        </mxCell>
        <mxCell id="yNIfGoefYe46fEr91YX2-141" value="Did&lt;br style=&quot;border-color: var(--border-color);&quot;&gt;You Get&lt;br style=&quot;border-color: var(--border-color);&quot;&gt;Distracted?" style="strokeWidth=2;html=1;shape=mxgraph.flowchart.decision;whiteSpace=wrap;" vertex="1" parent="1">
          <mxGeometry x="1060" y="-1057" width="110" height="110" as="geometry" />
        </mxCell>
        <mxCell id="yNIfGoefYe46fEr91YX2-149" style="edgeStyle=orthogonalEdgeStyle;rounded=0;orthogonalLoop=1;jettySize=auto;html=1;exitX=1;exitY=0.5;exitDx=0;exitDy=0;exitPerimeter=0;entryX=0;entryY=0.5;entryDx=0;entryDy=0;entryPerimeter=0;" edge="1" parent="1" source="yNIfGoefYe46fEr91YX2-144" target="yNIfGoefYe46fEr91YX2-148">
          <mxGeometry relative="1" as="geometry" />
        </mxCell>
        <mxCell id="yNIfGoefYe46fEr91YX2-144" value="Browsing&lt;br&gt;Dry Foods" style="strokeWidth=2;html=1;shape=mxgraph.flowchart.delay;whiteSpace=wrap;" vertex="1" parent="1">
          <mxGeometry x="1230" y="-1032" width="100" height="60" as="geometry" />
        </mxCell>
        <mxCell id="yNIfGoefYe46fEr91YX2-155" value="Yes" style="edgeStyle=orthogonalEdgeStyle;rounded=0;orthogonalLoop=1;jettySize=auto;html=1;exitX=1;exitY=0.5;exitDx=0;exitDy=0;exitPerimeter=0;" edge="1" parent="1" source="yNIfGoefYe46fEr91YX2-147">
          <mxGeometry x="-0.4118" relative="1" as="geometry">
            <mxPoint x="1630" y="-867" as="targetPoint" />
            <mxPoint as="offset" />
          </mxGeometry>
        </mxCell>
        <mxCell id="yNIfGoefYe46fEr91YX2-156" value="No" style="edgeStyle=orthogonalEdgeStyle;rounded=0;orthogonalLoop=1;jettySize=auto;html=1;exitX=0.5;exitY=1;exitDx=0;exitDy=0;exitPerimeter=0;entryX=0.5;entryY=0;entryDx=0;entryDy=0;" edge="1" parent="1" source="yNIfGoefYe46fEr91YX2-147" target="yNIfGoefYe46fEr91YX2-157">
          <mxGeometry relative="1" as="geometry">
            <mxPoint x="1630" y="-697" as="targetPoint" />
          </mxGeometry>
        </mxCell>
        <mxCell id="yNIfGoefYe46fEr91YX2-147" value="Did&amp;nbsp; we&lt;br&gt;forget&lt;br&gt;anything?" style="strokeWidth=2;html=1;shape=mxgraph.flowchart.decision;whiteSpace=wrap;" vertex="1" parent="1">
          <mxGeometry x="1445" y="-917" width="100" height="100" as="geometry" />
        </mxCell>
        <mxCell id="yNIfGoefYe46fEr91YX2-150" style="edgeStyle=orthogonalEdgeStyle;rounded=0;orthogonalLoop=1;jettySize=auto;html=1;exitX=0.5;exitY=1;exitDx=0;exitDy=0;exitPerimeter=0;entryX=0.5;entryY=0;entryDx=0;entryDy=0;" edge="1" parent="1" source="yNIfGoefYe46fEr91YX2-148" target="yNIfGoefYe46fEr91YX2-138">
          <mxGeometry relative="1" as="geometry" />
        </mxCell>
        <mxCell id="yNIfGoefYe46fEr91YX2-151" value="Yes" style="edgeLabel;html=1;align=center;verticalAlign=middle;resizable=0;points=[];" vertex="1" connectable="0" parent="yNIfGoefYe46fEr91YX2-150">
          <mxGeometry x="-0.2244" y="-1" relative="1" as="geometry">
            <mxPoint as="offset" />
          </mxGeometry>
        </mxCell>
        <mxCell id="yNIfGoefYe46fEr91YX2-152" style="edgeStyle=orthogonalEdgeStyle;rounded=0;orthogonalLoop=1;jettySize=auto;html=1;exitX=0.5;exitY=1;exitDx=0;exitDy=0;exitPerimeter=0;entryX=0;entryY=0.5;entryDx=0;entryDy=0;entryPerimeter=0;" edge="1" parent="1" source="yNIfGoefYe46fEr91YX2-148" target="yNIfGoefYe46fEr91YX2-147">
          <mxGeometry relative="1" as="geometry" />
        </mxCell>
        <mxCell id="yNIfGoefYe46fEr91YX2-153" value="No" style="edgeLabel;html=1;align=center;verticalAlign=middle;resizable=0;points=[];" vertex="1" connectable="0" parent="yNIfGoefYe46fEr91YX2-152">
          <mxGeometry x="0.18" y="-1" relative="1" as="geometry">
            <mxPoint as="offset" />
          </mxGeometry>
        </mxCell>
        <mxCell id="yNIfGoefYe46fEr91YX2-148" value="Find&lt;br&gt;Something&lt;br&gt;you want?" style="strokeWidth=2;html=1;shape=mxgraph.flowchart.decision;whiteSpace=wrap;" vertex="1" parent="1">
          <mxGeometry x="1360" y="-1052" width="100" height="100" as="geometry" />
        </mxCell>
        <mxCell id="yNIfGoefYe46fEr91YX2-161" style="edgeStyle=orthogonalEdgeStyle;rounded=0;orthogonalLoop=1;jettySize=auto;html=1;exitX=0.5;exitY=1;exitDx=0;exitDy=0;" edge="1" parent="1" source="yNIfGoefYe46fEr91YX2-157" target="yNIfGoefYe46fEr91YX2-162">
          <mxGeometry relative="1" as="geometry">
            <mxPoint x="1630" y="-497" as="targetPoint" />
          </mxGeometry>
        </mxCell>
        <mxCell id="yNIfGoefYe46fEr91YX2-157" value="Checkout" style="rounded=1;whiteSpace=wrap;html=1;absoluteArcSize=1;arcSize=14;strokeWidth=2;" vertex="1" parent="1">
          <mxGeometry x="1580" y="-687" width="100" height="100" as="geometry" />
        </mxCell>
        <mxCell id="yNIfGoefYe46fEr91YX2-159" style="edgeStyle=orthogonalEdgeStyle;rounded=0;orthogonalLoop=1;jettySize=auto;html=1;exitX=1;exitY=0.5;exitDx=0;exitDy=0;exitPerimeter=0;entryX=0.5;entryY=0;entryDx=0;entryDy=0;entryPerimeter=0;jumpStyle=line;" edge="1" parent="1" source="yNIfGoefYe46fEr91YX2-158" target="yNIfGoefYe46fEr91YX2-147">
          <mxGeometry relative="1" as="geometry" />
        </mxCell>
        <mxCell id="yNIfGoefYe46fEr91YX2-158" value="Grabbing&lt;br&gt;Forgotten&lt;br&gt;Items" style="strokeWidth=2;html=1;shape=mxgraph.flowchart.delay;whiteSpace=wrap;" vertex="1" parent="1">
          <mxGeometry x="1630" y="-897" width="100" height="60" as="geometry" />
        </mxCell>
        <mxCell id="yNIfGoefYe46fEr91YX2-162" value="Leave Costco" style="strokeWidth=2;html=1;shape=mxgraph.flowchart.terminator;whiteSpace=wrap;" vertex="1" parent="1">
          <mxGeometry x="1580" y="-527" width="100" height="60" as="geometry" />
        </mxCell>
        <mxCell id="yNIfGoefYe46fEr91YX2-166" style="edgeStyle=orthogonalEdgeStyle;rounded=0;orthogonalLoop=1;jettySize=auto;html=1;exitX=0;exitY=0.5;exitDx=0;exitDy=0;exitPerimeter=0;entryX=1;entryY=0;entryDx=0;entryDy=0;jumpStyle=line;" edge="1" parent="1" source="yNIfGoefYe46fEr91YX2-164" target="yNIfGoefYe46fEr91YX2-27">
          <mxGeometry relative="1" as="geometry">
            <Array as="points">
              <mxPoint x="430" y="-827" />
              <mxPoint x="430" y="-697" />
            </Array>
          </mxGeometry>
        </mxCell>
        <mxCell id="yNIfGoefYe46fEr91YX2-167" value="Yes" style="edgeLabel;html=1;align=center;verticalAlign=middle;resizable=0;points=[];" vertex="1" connectable="0" parent="yNIfGoefYe46fEr91YX2-166">
          <mxGeometry x="-0.8619" y="-1" relative="1" as="geometry">
            <mxPoint as="offset" />
          </mxGeometry>
        </mxCell>
        <mxCell id="yNIfGoefYe46fEr91YX2-168" style="edgeStyle=orthogonalEdgeStyle;rounded=0;orthogonalLoop=1;jettySize=auto;html=1;exitX=0.5;exitY=1;exitDx=0;exitDy=0;exitPerimeter=0;jumpStyle=line;entryX=0.5;entryY=0;entryDx=0;entryDy=0;entryPerimeter=0;" edge="1" parent="1" source="yNIfGoefYe46fEr91YX2-164" target="yNIfGoefYe46fEr91YX2-26">
          <mxGeometry relative="1" as="geometry">
            <mxPoint x="190" y="-677" as="targetPoint" />
            <Array as="points">
              <mxPoint x="640" y="-767" />
              <mxPoint x="610" y="-767" />
              <mxPoint x="610" y="-787" />
              <mxPoint x="450" y="-787" />
              <mxPoint x="450" y="-757" />
              <mxPoint x="125" y="-757" />
            </Array>
          </mxGeometry>
        </mxCell>
        <mxCell id="yNIfGoefYe46fEr91YX2-170" value="No" style="edgeLabel;html=1;align=center;verticalAlign=middle;resizable=0;points=[];" vertex="1" connectable="0" parent="yNIfGoefYe46fEr91YX2-168">
          <mxGeometry x="-0.7711" y="-2" relative="1" as="geometry">
            <mxPoint as="offset" />
          </mxGeometry>
        </mxCell>
        <mxCell id="yNIfGoefYe46fEr91YX2-164" value="Find&lt;br&gt;Something&lt;br&gt;you want?" style="strokeWidth=2;html=1;shape=mxgraph.flowchart.decision;whiteSpace=wrap;" vertex="1" parent="1">
          <mxGeometry x="590" y="-877" width="100" height="100" as="geometry" />
        </mxCell>
        <mxCell id="yNIfGoefYe46fEr91YX2-173" style="edgeStyle=orthogonalEdgeStyle;rounded=0;orthogonalLoop=1;jettySize=auto;html=1;exitX=0.5;exitY=1;exitDx=0;exitDy=0;exitPerimeter=0;entryX=0.5;entryY=0;entryDx=0;entryDy=0;entryPerimeter=0;" edge="1" parent="1" source="yNIfGoefYe46fEr91YX2-171" target="yNIfGoefYe46fEr91YX2-52">
          <mxGeometry relative="1" as="geometry">
            <Array as="points">
              <mxPoint x="560" y="-337" />
              <mxPoint x="125" y="-337" />
            </Array>
          </mxGeometry>
        </mxCell>
        <mxCell id="yNIfGoefYe46fEr91YX2-174" value="No" style="edgeLabel;html=1;align=center;verticalAlign=middle;resizable=0;points=[];" vertex="1" connectable="0" parent="yNIfGoefYe46fEr91YX2-173">
          <mxGeometry x="-0.8735" y="2" relative="1" as="geometry">
            <mxPoint x="-22" y="110" as="offset" />
          </mxGeometry>
        </mxCell>
        <mxCell id="yNIfGoefYe46fEr91YX2-175" style="edgeStyle=orthogonalEdgeStyle;rounded=0;orthogonalLoop=1;jettySize=auto;html=1;exitX=0.5;exitY=1;exitDx=0;exitDy=0;exitPerimeter=0;entryX=1;entryY=0.5;entryDx=0;entryDy=0;" edge="1" parent="1" source="yNIfGoefYe46fEr91YX2-171" target="yNIfGoefYe46fEr91YX2-44">
          <mxGeometry relative="1" as="geometry">
            <mxPoint x="220" y="-387" as="targetPoint" />
            <Array as="points">
              <mxPoint x="560" y="-467" />
              <mxPoint x="343" y="-467" />
              <mxPoint x="343" y="-377" />
              <mxPoint x="210" y="-377" />
              <mxPoint x="210" y="-407" />
            </Array>
          </mxGeometry>
        </mxCell>
        <mxCell id="yNIfGoefYe46fEr91YX2-176" value="Yes" style="edgeLabel;html=1;align=center;verticalAlign=middle;resizable=0;points=[];" vertex="1" connectable="0" parent="yNIfGoefYe46fEr91YX2-175">
          <mxGeometry x="-0.4088" y="-3" relative="1" as="geometry">
            <mxPoint as="offset" />
          </mxGeometry>
        </mxCell>
        <mxCell id="yNIfGoefYe46fEr91YX2-171" value="Find&lt;br&gt;Something&lt;br&gt;you want?" style="strokeWidth=2;html=1;shape=mxgraph.flowchart.decision;whiteSpace=wrap;" vertex="1" parent="1">
          <mxGeometry x="510" y="-587" width="100" height="100" as="geometry" />
        </mxCell>
      </root>
    </mxGraphModel>
  </diagram>
</mxfile>
